<?xml version="1.0" encoding="UTF-8" standalone="no"?>
<!-- Created with Inkscape (http://www.inkscape.org/) -->

<svg
   xmlns:dc="http://purl.org/dc/elements/1.1/"
   xmlns:cc="http://creativecommons.org/ns#"
   xmlns:rdf="http://www.w3.org/1999/02/22-rdf-syntax-ns#"
   xmlns:svg="http://www.w3.org/2000/svg"
   xmlns="http://www.w3.org/2000/svg"
   xmlns:sodipodi="http://sodipodi.sourceforge.net/DTD/sodipodi-0.dtd"
   xmlns:inkscape="http://www.inkscape.org/namespaces/inkscape"
   width="210mm"
   height="297mm"
   viewBox="0 0 210 297"
   version="1.1"
   id="svg98036"
   inkscape:version="0.92.5 (2060ec1f9f, 2020-04-08)"
   sodipodi:docname="favicon.svg">
  <defs
     id="defs98030">
    <clipPath
       clipPathUnits="userSpaceOnUse"
       id="clipPath13568">
      <path
         d="m 4175.92,5490.73 c 2.24,-6.39 1.81,-14.25 -1.29,-23.57 -8.98,-25.89 -17.87,-52.13 -26.67,-78.71 -8.81,-26.59 -17.27,-52.82 -25.38,-78.72 -8.11,-25.89 -15.53,-50.83 -22.26,-74.82 -6.73,-24 -12.69,-46.35 -17.87,-67.07 -1.73,-7.25 -4.4,-11.73 -8.03,-13.46 -3.62,-1.73 -9.41,-1.56 -17.35,0.52 -9.66,1.72 -18.55,3.88 -26.66,6.47 -8.12,2.59 -15.98,5.78 -23.56,9.58 -7.95,4.14 -13.21,8.72 -15.8,13.72 -2.59,5.01 -3.03,12.51 -1.29,22.53 2.75,20.02 6.64,43.58 11.65,70.69 5,27.1 10.61,54.97 16.82,83.63 6.22,28.65 12.6,56.97 19.17,84.93 6.55,27.96 12.77,52.99 18.64,75.09 2.76,10.69 6.81,17.26 12.17,19.68 5.35,2.41 13.54,1.72 24.6,-2.08 10.35,-2.76 21.66,-6.73 33.91,-11.91 12.26,-5.17 22.87,-10.87 31.85,-17.09 9.33,-6.56 15.1,-13.03 17.35,-19.41 z m -206.1,-374.41 c 3.28,6.38 8.02,11.73 14.24,16.05 6.21,4.31 13.72,7.07 22.52,8.29 8.81,1.2 18.73,0.25 29.78,-2.85 9.32,-2.42 16.91,-5.95 22.79,-10.62 5.86,-4.66 10.17,-9.76 12.94,-15.28 2.76,-5.52 4.23,-11.05 4.41,-16.57 0.17,-5.52 -0.44,-10.35 -1.81,-14.5 -1.04,-3.1 -3.04,-6.82 -5.96,-11.13 -2.94,-4.32 -6.56,-8.29 -10.88,-11.91 -4.32,-3.62 -9.5,-6.73 -15.53,-9.32 -6.04,-2.59 -12.87,-3.89 -20.46,-3.89 -16.23,-0.34 -30.03,3.98 -41.43,12.95 -11.39,8.98 -16.74,21.75 -16.05,38.32 0.35,7.25 2.16,14.07 5.44,20.46 z"
         id="path13566"
         inkscape:connector-curvature="0" />
    </clipPath>
    <linearGradient
       x1="0"
       y1="0"
       x2="1"
       y2="0"
       gradientUnits="userSpaceOnUse"
       gradientTransform="matrix(213.01,0,0,-213.01,3964.32,5293.6)"
       spreadMethod="pad"
       id="linearGradient13578">
      <stop
         style="stop-opacity:1;stop-color:#ef3634"
         offset="0"
         id="stop13570" />
      <stop
         style="stop-opacity:1;stop-color:#ef3634"
         offset="0.00537634"
         id="stop13572" />
      <stop
         style="stop-opacity:1;stop-color:#8d0f13"
         offset="0.994624"
         id="stop13574" />
      <stop
         style="stop-opacity:1;stop-color:#8d0f13"
         offset="1"
         id="stop13576" />
    </linearGradient>
    <clipPath
       clipPathUnits="userSpaceOnUse"
       id="clipPath13546">
      <path
         d="m 4002.86,5314.93 c -2.46,-1.68 -6.92,-2.27 -13.37,-1.75 -18.09,2.59 -31.33,7.88 -39.72,15.89 -8.4,8.01 -13.25,18.61 -14.54,31.79 -0.52,2.57 -0.84,5.09 -0.97,7.55 -0.13,2.45 -0.06,5.1 0.2,7.95 0,2.84 -0.13,5.55 -0.39,8.14 -0.26,2.57 -0.52,5.16 -0.77,7.75 -1.04,4.9 -2.01,9.04 -2.91,12.4 -0.91,3.35 -2.65,5.42 -5.23,6.2 -5.17,1.55 -11.31,-0.58 -18.41,-6.4 -7.11,-5.81 -14.34,-14.14 -21.7,-24.99 -7.37,-10.85 -14.54,-23.45 -21.51,-37.79 -6.98,-14.34 -12.93,-29.26 -17.83,-44.76 -4.39,-12.4 -7.56,-25.13 -9.49,-38.18 -1.94,-13.04 -2.66,-25.12 -2.14,-36.23 0.52,-11.11 2.33,-20.61 5.43,-28.48 3.1,-7.89 7.36,-12.73 12.79,-14.54 4.65,-1.55 9.5,-1.16 14.53,1.16 5.04,2.33 10.01,6.07 14.92,11.24 4.91,5.17 9.69,11.44 14.34,18.8 4.65,7.36 9.04,15.31 13.18,23.84 -15.5,-0.78 -27.46,1.93 -35.85,8.13 -8.4,6.21 -15.05,16.67 -19.96,31.39 -1.03,3.36 -0.97,6.01 0.2,7.95 1.16,1.94 3.16,3.49 6,4.65 2.84,1.16 6.33,2.06 10.47,2.71 4.13,0.64 8.78,1.36 13.95,2.13 9.55,2.07 19.5,3.68 29.84,4.85 10.33,1.16 19.24,2.38 26.74,3.68 8.78,1.29 15.89,1.22 21.32,-0.19 5.42,-1.43 10.46,-4.72 15.11,-9.89 3.1,-3.36 6.01,-6.85 8.72,-10.46 2.71,-3.62 5.23,-6.97 7.56,-10.08 4.38,-5.94 6.65,-11.24 6.78,-15.89 0.13,-4.64 -0.97,-10.33 -3.29,-17.05 -9.57,-23.25 -20.55,-42.76 -32.95,-58.52 -12.4,-15.76 -25.83,-27.9 -40.3,-36.43 -9.3,-5.16 -19.13,-8.58 -29.46,-10.27 -10.33,-1.68 -21.18,-1.74 -32.55,-0.19 -19.9,2.59 -39.27,8.01 -58.13,16.28 -6.72,3.61 -13.25,8.46 -19.57,14.53 -6.33,6.06 -11.3,12.72 -14.92,19.95 -6.72,11.63 -11.37,25.26 -13.96,40.9 -2.57,15.62 -3.22,32.22 -1.93,49.8 1.29,17.56 4.39,35.45 9.3,53.67 4.91,18.21 11.56,35.91 19.96,53.09 8.39,17.18 18.34,33.27 29.84,48.25 11.49,14.98 24.48,27.77 38.95,38.37 4.65,3.61 9.69,6.46 15.11,8.53 5.43,2.06 10.91,3.48 16.47,4.26 5.55,0.77 11.05,1.16 16.47,1.16 5.43,0 10.47,-0.39 15.12,-1.16 6.71,-0.78 13.56,-2.07 20.54,-3.88 6.97,-1.81 13.75,-3.94 20.34,-6.39 6.59,-2.46 12.79,-5.3 18.6,-8.52 5.82,-3.24 11.05,-6.79 15.7,-10.67 8.78,-6.97 14.98,-14.59 18.6,-22.86 3.62,-8.27 6.07,-17.57 7.37,-27.9 0.25,-5.43 0.32,-11.5 0.19,-18.22 -0.13,-6.72 -0.52,-13.44 -1.16,-20.15 -0.65,-6.72 -1.43,-13.18 -2.33,-19.38 -0.91,-6.2 -1.87,-11.37 -2.9,-15.5 -1.82,-5.17 -3.95,-8.59 -6.4,-10.27 z"
         id="path13544"
         inkscape:connector-curvature="0" />
    </clipPath>
    <linearGradient
       x1="0"
       y1="0"
       x2="1"
       y2="0"
       gradientUnits="userSpaceOnUse"
       gradientTransform="matrix(263.269,0,0,-263.269,3752.44,5304.88)"
       spreadMethod="pad"
       id="linearGradient13556">
      <stop
         style="stop-opacity:1;stop-color:#ef3634"
         offset="0"
         id="stop13548" />
      <stop
         style="stop-opacity:1;stop-color:#ef3634"
         offset="0.00537634"
         id="stop13550" />
      <stop
         style="stop-opacity:1;stop-color:#8d0f13"
         offset="0.994624"
         id="stop13552" />
      <stop
         style="stop-opacity:1;stop-color:#8d0f13"
         offset="1"
         id="stop13554" />
    </linearGradient>
    <clipPath
       clipPathUnits="userSpaceOnUse"
       id="clipPath13524">
      <path
         d="m 3713.41,5361.26 c 1.09,26.69 2.5,51.35 4.25,73.99 0.5,6.14 2.28,10.23 5.34,12.28 3.05,2.03 7.94,2.86 14.69,2.47 3.18,-0.23 6.03,-0.41 8.56,-0.56 2.53,-0.15 5.04,-0.5 7.55,-1.07 2.5,-0.57 5.2,-1.31 8.08,-2.22 2.88,-0.91 6.25,-2.15 10.09,-3.71 6.53,-2.51 10.49,-5.57 11.9,-9.16 1.42,-3.59 1.81,-8.15 1.2,-13.69 -1.81,-15.77 -3.43,-33.6 -4.87,-53.47 -1.44,-19.87 -2.77,-40.04 -3.99,-60.49 -1.23,-20.47 -2.33,-40.43 -3.33,-59.91 -0.99,-19.47 -1.77,-36.57 -2.31,-51.26 0.25,-7.88 -5.29,-11.64 -16.62,-11.29 -9.61,0.05 -19.56,0.87 -29.87,2.46 -9.51,1.74 -16.89,6.59 -22.16,14.56 -4,5.7 -8.24,12.4 -12.73,20.1 -4.48,7.7 -9.14,16.04 -13.97,25.03 -4.84,8.98 -9.75,18.38 -14.73,28.17 -4.99,9.79 -9.79,19.67 -14.39,29.64 0.15,-12.9 0.26,-25.81 0.31,-38.73 0.06,-12.92 0.11,-25.26 0.15,-37.03 0.05,-11.77 0.14,-22.71 0.29,-32.79 0.14,-10.09 0.39,-18.85 0.77,-26.28 -0.16,-3.57 -1.06,-5.99 -2.7,-7.24 -1.63,-1.25 -5.21,-1.66 -10.71,-1.25 -5.06,0.29 -10.18,0.62 -15.35,0.99 -5.19,0.38 -10.35,1.53 -15.52,3.47 -4.84,1.37 -8.3,3.37 -10.37,6.01 -2.06,2.63 -3.39,6.6 -3.98,11.91 -0.62,5.51 -1.44,13.38 -2.45,23.62 -1,10.23 -1.96,21.88 -2.88,34.95 -0.92,13.06 -1.8,27.08 -2.66,42.03 -0.86,14.96 -1.56,29.89 -2.1,44.8 -0.53,14.91 -0.93,29.32 -1.17,43.25 -0.25,13.92 -0.26,26.33 -0.03,37.21 0.26,6.31 2.06,10.56 5.4,12.76 3.33,2.2 8.27,3.08 14.82,2.65 7.86,-0.8 15.53,-1.63 23,-2.51 7.46,-0.88 15.36,-2.4 23.7,-4.57 6.73,-1.43 11.78,-3.86 15.14,-7.29 3.36,-3.43 6.37,-8.85 9.03,-16.27 2.12,-5.64 4.84,-12.84 8.17,-21.59 3.33,-8.75 7,-18.22 11.02,-28.4 4.02,-10.19 8.19,-20.65 12.53,-31.4 4.34,-10.75 8.58,-21.05 12.75,-30.89 -0.98,27.12 -0.93,54.03 0.15,80.72 z"
         id="path13522"
         inkscape:connector-curvature="0" />
    </clipPath>
    <linearGradient
       x1="0"
       y1="0"
       x2="1"
       y2="0"
       gradientUnits="userSpaceOnUse"
       gradientTransform="matrix(207.813,0,0,-207.813,3577.53,5304.88)"
       spreadMethod="pad"
       id="linearGradient13534">
      <stop
         style="stop-opacity:1;stop-color:#ef3634"
         offset="0"
         id="stop13526" />
      <stop
         style="stop-opacity:1;stop-color:#ef3634"
         offset="0.00537634"
         id="stop13528" />
      <stop
         style="stop-opacity:1;stop-color:#8d0f13"
         offset="0.994624"
         id="stop13530" />
      <stop
         style="stop-opacity:1;stop-color:#8d0f13"
         offset="1"
         id="stop13532" />
    </linearGradient>
    <clipPath
       clipPathUnits="userSpaceOnUse"
       id="clipPath13502">
      <path
         d="m 3482.37,5327.91 c 10.5,2.99 21.09,5.76 31.79,8.3 -3.75,19.2 -7.37,38.36 -10.86,57.48 -3.5,19.12 -6.61,38.12 -9.34,57.02 -6.48,-18.77 -13.42,-39.48 -20.82,-62.15 -7.39,-22.66 -14.71,-46.1 -21.97,-70.31 10.3,3.44 20.7,6.66 31.2,9.66 z m -6.94,-63.78 c -17.09,-5.45 -32.04,-11.07 -44.84,-16.88 -3.15,-9.96 -5.81,-19.19 -7.99,-27.66 -2.19,-8.48 -4.29,-16.76 -6.3,-24.84 -1.21,-4.32 -3.1,-7.06 -5.68,-8.22 -2.59,-1.17 -6.74,-1.27 -12.47,-0.31 -3.26,0.66 -6.83,1.44 -10.74,2.35 -3.9,0.9 -7.89,1.98 -11.98,3.22 -3.14,1.4 -5.87,2.57 -8.21,3.5 -2.34,0.93 -4.25,2.24 -5.75,3.92 -1.49,1.68 -2.55,3.98 -3.17,6.91 -0.61,2.91 -0.64,6.96 -0.07,12.14 2.89,17.18 7,37.47 12.33,60.88 5.33,23.4 11.25,47.63 17.76,72.68 6.5,25.06 13.29,49.86 20.36,74.4 7.08,24.55 14.05,46.48 20.93,65.79 2.45,6.95 6.15,12.9 11.11,17.86 4.97,4.95 13.05,7.9 24.26,8.84 9.72,1.17 18.43,1.86 26.14,2.09 7.7,0.22 14.78,0.15 21.26,-0.2 6.46,-0.35 12.49,-0.9 18.05,-1.65 5.57,-0.74 11.18,-1.36 16.83,-1.85 7.73,-1.35 12.95,-3.97 15.67,-7.86 2.71,-3.89 4.3,-9.31 4.76,-16.24 1.43,-16.94 3.5,-36.3 6.25,-58.09 2.73,-21.79 5.87,-44.48 9.39,-68.07 3.53,-23.59 7.24,-47.21 11.15,-70.85 3.89,-23.65 7.68,-45.57 11.36,-65.74 0.72,-4.23 0.34,-7.32 -1.15,-9.27 -1.48,-1.94 -5.28,-3.44 -11.39,-4.48 -6.12,-1.04 -11.79,-1.82 -17.02,-2.35 -5.23,-0.52 -10.71,-0.3 -16.44,0.65 -5.92,0.7 -10.22,2.13 -12.89,4.34 -2.68,2.21 -5.05,6.52 -7.1,12.95 -2.1,6.66 -4.19,13.98 -6.28,21.97 -2.08,7.99 -4.3,16.74 -6.64,26.27 -17.23,-5.35 -34.4,-10.75 -51.5,-16.2 z"
         id="path13500"
         inkscape:connector-curvature="0" />
    </clipPath>
    <linearGradient
       x1="0"
       y1="0"
       x2="1"
       y2="0"
       gradientUnits="userSpaceOnUse"
       gradientTransform="matrix(248.368,0,0,-248.368,3357.82,5353.25)"
       spreadMethod="pad"
       id="linearGradient13512">
      <stop
         style="stop-opacity:1;stop-color:#ef3634"
         offset="0"
         id="stop13504" />
      <stop
         style="stop-opacity:1;stop-color:#ef3634"
         offset="0.00537634"
         id="stop13506" />
      <stop
         style="stop-opacity:1;stop-color:#8d0f13"
         offset="0.994624"
         id="stop13508" />
      <stop
         style="stop-opacity:1;stop-color:#8d0f13"
         offset="1"
         id="stop13510" />
    </linearGradient>
    <clipPath
       clipPathUnits="userSpaceOnUse"
       id="clipPath13480">
      <path
         d="m 3303.21,5320.27 c 8.4,8.96 15.17,17.48 20.31,25.57 5.14,8.07 8.51,15.28 10.11,21.62 1.59,6.33 1.49,10.99 -0.3,13.97 -1.61,2.37 -4.43,3.66 -8.46,3.86 -4.04,0.21 -8.88,-0.72 -14.54,-2.78 -5.66,-2.06 -11.91,-5.24 -18.76,-9.54 -6.85,-4.3 -14,-9.79 -21.44,-16.48 -0.17,-9.54 0.18,-19.36 1.06,-29.45 0.88,-10.11 1.54,-20.93 1.99,-32.49 11.61,8.18 21.62,16.75 30.03,25.72 z m -23.73,-105.36 c 0.65,-8.3 1.51,-16.7 2.57,-25.2 9.68,5.83 18.3,11.93 25.83,18.32 7.54,6.38 13.7,12.57 18.49,18.56 4.79,5.98 8.02,11.49 9.68,16.52 1.66,5.03 1.56,9.14 -0.29,12.32 -1.63,1.71 -4.2,2.91 -7.72,3.6 -3.52,0.68 -7.9,0.56 -13.12,-0.37 -5.23,-0.94 -11.04,-2.87 -17.42,-5.82 -6.38,-2.94 -13.2,-6.96 -20.47,-12.05 0.97,-8.97 1.79,-17.59 2.45,-25.88 z m 104.56,71.49 c 7.16,-5.76 12.72,-12.22 16.68,-19.39 3.78,-8.78 4.93,-16.86 3.44,-24.26 -1.49,-7.41 -5.14,-15.31 -10.96,-23.7 -3.83,-6.25 -8.68,-12.58 -14.54,-19.01 -5.87,-6.42 -12.27,-12.57 -19.19,-18.43 -6.92,-5.88 -14,-11.4 -21.24,-16.59 -7.24,-5.19 -14.21,-9.8 -20.92,-13.84 -3.52,-2.18 -6.59,-3.88 -9.18,-5.12 -2.61,-1.24 -5.2,-2.13 -7.78,-2.7 -2.59,-0.57 -5.21,-0.82 -7.88,-0.76 -2.67,0.07 -5.9,0.52 -9.68,1.35 -6.85,0.77 -12.99,1.93 -18.43,3.46 -5.43,1.54 -11.88,3.7 -19.36,6.5 -2.95,1.74 -5.55,3.21 -7.79,4.4 -2.24,1.19 -4.16,2.59 -5.75,4.2 -1.6,1.61 -2.97,3.56 -4.11,5.86 -1.14,2.3 -2.1,5.42 -2.87,9.38 -3.22,12.7 -6.43,27.21 -9.66,43.54 -3.22,16.34 -6.48,33.32 -9.78,50.95 -3.29,17.64 -6.82,35.31 -10.57,53.03 -3.76,17.71 -7.82,34.39 -12.16,50.05 6.37,6.59 14.05,13.23 23.03,19.95 8.98,6.71 18.56,13.06 28.76,19.04 10.2,5.98 20.76,11.31 31.69,15.97 10.92,4.67 21.58,8.25 31.95,10.76 10.37,2.51 20.22,3.69 29.52,3.56 9.31,-0.14 17.49,-1.99 24.54,-5.58 9.22,-4.9 17.43,-10.66 24.64,-17.29 7.21,-6.62 13.55,-14.94 19.04,-24.95 2.8,-5.55 4.47,-11.21 5.03,-16.99 0.55,-5.79 0.29,-11.61 -0.79,-17.45 -1.08,-5.85 -2.88,-11.53 -5.38,-17.04 -2.51,-5.51 -5.4,-10.86 -8.67,-16.05 -3.73,-5.11 -7.55,-10.3 -11.45,-15.57 -3.91,-5.28 -8.77,-10.68 -14.58,-16.2 9.11,-1.64 17.24,-5.33 24.4,-11.08 z"
         id="path13478"
         inkscape:connector-curvature="0" />
    </clipPath>
    <linearGradient
       x1="0"
       y1="0"
       x2="1"
       y2="0"
       gradientUnits="userSpaceOnUse"
       gradientTransform="matrix(222.477,0,0,-222.477,3182.31,5293.6)"
       spreadMethod="pad"
       id="linearGradient13490">
      <stop
         style="stop-opacity:1;stop-color:#ef3634"
         offset="0"
         id="stop13482" />
      <stop
         style="stop-opacity:1;stop-color:#ef3634"
         offset="0.00537634"
         id="stop13484" />
      <stop
         style="stop-opacity:1;stop-color:#8d0f13"
         offset="0.994624"
         id="stop13486" />
      <stop
         style="stop-opacity:1;stop-color:#8d0f13"
         offset="1"
         id="stop13488" />
    </linearGradient>
    <clipPath
       clipPathUnits="userSpaceOnUse"
       id="clipPath13430">
      <path
         d="m 4099.45,5558.2 c 0,0 -393.2,-196.76 -313.92,24.31 0,0 -76.07,-98.17 -121.09,71.55 0,0 16.61,-172.17 -87.89,-133 0,0 15.47,-194.2 -167.16,-42.17 0,0 3.19,-133.34 -228.69,-45.86 0,0 293.2,-117.43 93.35,-233.28 0,0 198.6,73.14 64.68,-221.53 0,0 259.19,282.62 259.14,37.79 0,0 189.9,298.57 251.47,65.4 -40.86,154.73 182.92,133.04 258.48,76.82 0,0 -261.7,218.29 -8.37,399.97 z"
         id="path13428"
         inkscape:connector-curvature="0" />
    </clipPath>
    <linearGradient
       x1="0"
       y1="0"
       x2="1"
       y2="0"
       gradientUnits="userSpaceOnUse"
       gradientTransform="matrix(-179.85,483.96,483.96,179.85,3780.73,5102.34)"
       spreadMethod="pad"
       id="linearGradient13436">
      <stop
         style="stop-opacity:1;stop-color:#f68712"
         offset="0"
         id="stop13432" />
      <stop
         style="stop-opacity:1;stop-color:#f2ef1e"
         offset="1"
         id="stop13434" />
    </linearGradient>
  </defs>
  <sodipodi:namedview
     id="base"
     pagecolor="#ffffff"
     bordercolor="#666666"
     borderopacity="1.0"
     inkscape:pageopacity="0.0"
     inkscape:pageshadow="2"
     inkscape:zoom="1.979899"
     inkscape:cx="467.86129"
     inkscape:cy="628.40183"
     inkscape:document-units="mm"
     inkscape:current-layer="layer1"
     showgrid="false"
     inkscape:window-width="1920"
     inkscape:window-height="1012"
     inkscape:window-x="1920"
     inkscape:window-y="38"
     inkscape:window-maximized="1" />
  <metadata
     id="metadata98033">
    <rdf:RDF>
      <cc:Work
         rdf:about="">
        <dc:format>image/svg+xml</dc:format>
        <dc:type
           rdf:resource="http://purl.org/dc/dcmitype/StillImage" />
        <dc:title></dc:title>
      </cc:Work>
    </rdf:RDF>
  </metadata>
  <g
     inkscape:label="Layer 1"
     inkscape:groupmode="layer"
     id="layer1">
    <g
       id="g98270">
      <g
         transform="matrix(0.72135684,0,0,1,23.000402,0)"
         id="g98243">
        <g
           transform="matrix(0.03527778,0,0,-0.03527778,-27.944192,287.50412)"
           id="g13424">
          <g
             id="g13426"
             clip-path="url(#clipPath13430)">
            <path
               d="m 4099.45,5558.2 c 0,0 -393.2,-196.76 -313.92,24.31 0,0 -76.07,-98.17 -121.09,71.55 0,0 16.61,-172.17 -87.89,-133 0,0 15.47,-194.2 -167.16,-42.17 0,0 3.19,-133.34 -228.69,-45.86 0,0 293.2,-117.43 93.35,-233.28 0,0 198.6,73.14 64.68,-221.53 0,0 259.19,282.62 259.14,37.79 0,0 189.9,298.57 251.47,65.4 -40.86,154.73 182.92,133.04 258.48,76.82 0,0 -261.7,218.29 -8.37,399.97"
               style="fill:url(#linearGradient13436);fill-opacity:1;fill-rule:nonzero;stroke:none"
               id="path13438"
               inkscape:connector-curvature="0" />
          </g>
        </g>
        <path
           d="m 116.68305,91.43412 -0.4191,0.316441 c -0.13547,0.110773 -0.27341,0.218723 -0.4064,0.331964 -0.26529,0.228247 -0.52564,0.462139 -0.76906,0.712964 -0.24906,0.245886 -0.4759,0.512233 -0.69709,0.782108 -0.21237,0.276578 -0.41945,0.558448 -0.59619,0.859014 -0.17674,0.299861 -0.34184,0.607484 -0.47131,0.930628 -0.13194,0.321733 -0.23954,0.652992 -0.31927,0.991305 -0.15592,0.676628 -0.19614,1.37795 -0.12664,2.068336 0.0709,0.690739 0.24906,1.368072 0.49988,2.01542 0.25118,0.64841 0.57538,1.26718 0.94792,1.85526 0.37253,0.58773 0.7941,1.14441 1.24777,1.67287 0.22648,0.26423 0.46285,0.52035 0.70662,0.76906 0.24376,0.24765 0.49671,0.49036 0.75776,0.71296 0.0441,0.0378 0.0494,0.10407 0.012,0.14817 -0.036,0.042 -0.0981,0.0487 -0.14217,0.0169 -0.40816,-0.2981 -0.86818,-0.52952 -1.34196,-0.72073 -0.47519,-0.19015 -0.96732,-0.33937 -1.46685,-0.45473 -0.49954,-0.115 -1.00718,-0.1965 -1.51765,-0.23848 -0.51012,-0.042 -1.02376,-0.0469 -1.53106,3.5e-4 -0.50659,0.0476 -1.00965,0.14675 -1.47814,0.32984 -0.23389,0.0917 -0.4579,0.20462 -0.66428,0.3422 -0.20673,0.13688 -0.39405,0.30092 -0.54963,0.49036 -0.15628,0.18909 -0.28186,0.40217 -0.37112,0.63077 -0.0889,0.22895 -0.14076,0.47237 -0.16333,0.71966 -0.0466,0.49636 0.0307,1.0026 0.15663,1.49261 0.0183,0.0709 -0.0247,0.14358 -0.0956,0.16157 -0.0699,0.018 -0.14111,-0.0229 -0.16087,-0.0917 l -3.4e-4,-0.002 -0.10971,-0.38418 c -0.042,-0.12594 -0.0794,-0.25364 -0.12489,-0.37817 -0.0469,-0.12383 -0.0889,-0.25012 -0.14287,-0.37077 l -0.0773,-0.18239 -0.0854,-0.17815 c -0.11783,-0.2346 -0.24695,-0.46391 -0.40535,-0.66922 -0.15628,-0.20602 -0.33513,-0.393 -0.5408,-0.53975 -0.20532,-0.14711 -0.43745,-0.25153 -0.68228,-0.30057 -0.24518,-0.0515 -0.50165,-0.0427 -0.75247,0.004 -0.50412,0.0956 -0.98072,0.33832 -1.42134,0.62618 -0.44168,0.28963 -0.84984,0.635 -1.23931,0.99872 -0.38735,0.36688 -0.75636,0.75494 -1.10878,1.15817 -0.35207,0.40357 -0.68968,0.82091 -1.01353,1.24812 -0.162279,0.21379 -0.320676,0.43004 -0.475899,0.64876 -0.154869,0.21837 -0.307975,0.44027 -0.452261,0.66287 -0.03951,0.061 -0.121002,0.0783 -0.182033,0.0388 -0.0381,-0.0247 -0.05891,-0.0653 -0.05997,-0.10724 v -0.002 l -0.0071,-0.41205 c -0.0088,-0.13652 -0.01129,-0.27411 -0.02469,-0.41028 -0.0127,-0.13617 -0.02328,-0.2727 -0.0448,-0.4071 -0.01588,-0.13547 -0.04304,-0.26847 -0.06879,-0.40182 -0.05856,-0.26388 -0.134408,-0.52387 -0.244827,-0.76553 -0.11042,-0.24059 -0.258234,-0.46213 -0.450498,-0.63217 -0.191558,-0.16898 -0.424391,-0.28928 -0.67945,-0.33444 -0.254,-0.0483 -0.521405,-0.0388 -0.784225,0.007 -0.263525,0.0455 -0.523169,0.12559 -0.776816,0.22402 -0.253295,0.0988 -0.500592,0.21625 -0.74295,0.34501 -0.484717,0.25683 -0.946503,0.56057 -1.395589,0.8816 -0.448028,0.32279 -0.88265,0.66569 -1.305278,1.02305 -0.423333,0.35666 -0.835025,0.72778 -1.237545,1.10878 -0.401813,0.381 -0.797277,0.77223 -1.174749,1.1744 -0.0374,0.0402 -0.100542,0.0423 -0.140406,0.005 -0.03175,-0.0296 -0.03951,-0.0755 -0.02328,-0.11289 0.09631,-0.21696 0.197203,-0.4318 0.289278,-0.64982 0.09525,-0.21731 0.185913,-0.43603 0.275872,-0.65546 0.08749,-0.22013 0.176389,-0.43991 0.257175,-0.66251 0.08361,-0.22155 0.160866,-0.44556 0.236714,-0.66958 l 0.108655,-0.33761 0.101247,-0.34007 0.09278,-0.3422 c 0.02752,-0.11465 0.05715,-0.22895 0.0829,-0.34396 0.05009,-0.23071 0.09737,-0.46178 0.130175,-0.69497 0.03634,-0.23283 0.05821,-0.46708 0.06879,-0.70132 0.01199,-0.23424 0.0042,-0.46849 -0.02187,-0.69991 -0.02716,-0.23107 -0.0762,-0.45932 -0.158044,-0.67487 -0.08076,-0.21515 -0.195766,-0.41765 -0.348872,-0.58698 -0.150283,-0.17215 -0.339372,-0.30762 -0.545747,-0.40746 -0.103716,-0.0494 -0.212372,-0.0885 -0.322791,-0.12206 -0.111478,-0.0303 -0.22472,-0.0557 -0.340078,-0.0723 -0.230011,-0.0332 -0.464961,-0.0402 -0.698853,-0.0279 -0.234244,0.0123 -0.467783,0.0434 -0.6985,0.0885 -0.230364,0.0455 -0.461081,0.10407 -0.680508,0.17957 l -0.07267,-0.0349 0.02434,-0.0677 0.325261,-0.19474 c 0.10548,-0.0691 0.212725,-0.13617 0.316794,-0.20743 0.206728,-0.14464 0.411692,-0.29281 0.601134,-0.45861 0.192264,-0.16263 0.372533,-0.33973 0.534105,-0.53129 0.163336,-0.1905 0.306917,-0.39793 0.417689,-0.62159 0.11183,-0.22296 0.191205,-0.46179 0.225777,-0.70803 0.03528,-0.24623 0.02469,-0.49812 -0.02646,-0.74189 -0.102658,-0.49001 -0.359481,-0.937681 -0.669572,-1.332086 -0.312561,-0.395817 -0.680861,-0.746478 -1.070681,-1.067859 -0.391583,-0.320675 -0.806803,-0.612775 -1.235428,-0.883002 -0.42933,-0.26917 -0.871713,-0.517878 -1.322563,-0.750358 -0.45085,-0.23107 -0.91052,-0.448734 -1.377598,-0.64135 l -0.02469,-0.05927 0.0575,-0.02505 0.566914,0.202141 c 0.188031,0.07055 0.380647,0.127 0.571147,0.189089 l 0.286809,0.09137 0.28963,0.08114 c 0.19297,0.05362 0.385586,0.110419 0.581378,0.152753 0.195086,0.0448 0.389114,0.09596 0.58667,0.128764 0.19685,0.03704 0.392994,0.07761 0.591961,0.09984 l 0.297038,0.04022 0.298803,0.02363 c 0.198967,0.02152 0.398639,0.01693 0.597959,0.02328 0.09948,-7.15e-4 0.198966,-0.0078 0.29845,-0.01129 0.04974,-0.0025 0.09948,-0.0032 0.148872,-0.0074 l 0.148166,-0.01693 c 0.197909,-0.01764 0.392642,-0.0568 0.585612,-0.09984 0.0949,-0.02752 0.191205,-0.0508 0.285044,-0.08114 0.09207,-0.03563 0.185913,-0.06632 0.276224,-0.105127 0.178859,-0.08184 0.353836,-0.172508 0.511881,-0.288572 l 0.118533,-0.08643 0.110067,-0.09666 c 0.0762,-0.06138 0.13723,-0.138641 0.206375,-0.207433 0.125236,-0.14993 0.236008,-0.31115 0.326319,-0.484364 0.08819,-0.173919 0.157339,-0.357716 0.206022,-0.546805 0.04868,-0.187678 0.07937,-0.386998 0.08008,-0.573617 v -0.0011 c 3.44e-4,-0.04551 0.03739,-0.0822 0.0829,-0.08184 l 0.05115,0.01834 c 0.146755,0.117828 0.291395,0.237772 0.440972,0.352072 0.147462,0.116417 0.299156,0.227542 0.450498,0.338667 l 0.229658,0.162983 0.233186,0.157339 c 0.156986,0.102658 0.315383,0.202142 0.476956,0.296333 0.08043,0.04798 0.162983,0.09172 0.244122,0.137584 l 0.248708,0.128058 c 0.167922,0.08008 0.336903,0.158045 0.511175,0.220839 0.173214,0.06526 0.349603,0.119592 0.528814,0.156633 0.178858,0.0381 0.360186,0.06138 0.540103,0.05962 0.179564,-0.0014 0.357011,-0.02858 0.523522,-0.08643 0.165806,-0.05786 0.321028,-0.144639 0.454731,-0.259291 0.27058,-0.2286 0.455788,-0.551745 0.582436,-0.892881 0.125941,-0.343606 0.198966,-0.708731 0.239536,-1.077383 0.02081,-0.18415 0.03246,-0.370064 0.03739,-0.555978 0.0049,-0.184856 0.0028,-0.373945 -0.0092,-0.554214 -0.0042,-0.06244 0.04304,-0.116769 0.10548,-0.121003 l 0.04198,0.0053 0.0042,0.0014 0.200731,0.06456 c 0.06668,0.02187 0.13335,0.04516 0.202142,0.05644 l 0.204258,0.0441 c 0.06844,0.0099 0.137583,0.01411 0.206022,0.02152 0.06879,0.01058 0.136878,0.006 0.205317,0.0035 l 0.102305,-0.0028 c 0.03422,-3.44e-4 0.06668,-0.01058 0.100189,-0.01517 0.134409,-0.01729 0.263172,-0.05891 0.386292,-0.111477 0.05856,-0.03246 0.122061,-0.05645 0.177088,-0.0949 0.054,-0.04057 0.11219,-0.07479 0.16299,-0.119239 0.0487,-0.04692 0.10089,-0.09031 0.14746,-0.140053 0.0437,-0.05221 0.0892,-0.103364 0.13194,-0.156633 l 0.11641,-0.170745 0.1016,-0.182033 c 0.0614,-0.125589 0.11995,-0.252589 0.16722,-0.385586 0.0268,-0.06491 0.0473,-0.132645 0.0684,-0.200378 0.0215,-0.06703 0.0427,-0.134408 0.0593,-0.203553 0.0381,-0.136525 0.0667,-0.276225 0.0956,-0.415572 0.025,-0.140406 0.0494,-0.281164 0.067,-0.422981 0.0183,-0.141816 0.0346,-0.283986 0.0452,-0.426861 0.0236,-0.28575 0.0346,-0.572911 0.0353,-0.860072 0,-0.14358 -0.002,-0.287161 -0.007,-0.430742 -0.005,-0.142875 -0.0127,-0.287866 -0.0247,-0.427566 -0.005,-0.06103 0.0399,-0.114653 0.10089,-0.119592 0.0536,-0.0049 0.1016,0.02999 0.11572,0.08008 l 3.4e-4,3.52e-4 0.11254,0.399344 c 0.0353,0.133703 0.0811,0.263878 0.12311,0.395112 l 0.0642,0.19685 0.072,0.193322 c 0.049,0.128764 0.0949,0.258939 0.1524,0.383822 0.055,0.125589 0.1069,0.252942 0.17181,0.373239 l 0.0924,0.183444 c 0.0328,0.05962 0.0688,0.117475 0.10301,0.176389 0.0656,0.119945 0.1464,0.228248 0.22366,0.339725 0.0381,0.05609 0.0847,0.104423 0.12629,0.157339 l 0.0646,0.07761 0.0709,0.07056 c 0.0921,0.09701 0.19544,0.18027 0.30304,0.255411 0.10936,0.07232 0.22472,0.134056 0.34749,0.174625 0.0614,0.01905 0.12241,0.04057 0.18662,0.04798 0.0318,0.0049 0.0635,0.01199 0.0952,0.01552 l 0.0967,0.0039 c 0.0642,0.0071 0.12876,-0.006 0.19332,-0.0081 0.0639,-0.01129 0.12876,-0.02046 0.19156,-0.03775 0.12664,-0.03351 0.25012,-0.08255 0.369,-0.142169 0.11783,-0.06138 0.23284,-0.130881 0.34114,-0.211314 0.10901,-0.07867 0.21272,-0.165805 0.3108,-0.258939 0.0974,-0.09243 0.19402,-0.192616 0.27551,-0.293158 0.0339,-0.04269 0.096,-0.04939 0.13865,-0.01552 0.0332,0.02681 0.0445,0.07091 0.0314,0.108656 -0.0984,0.290336 -0.19685,0.58173 -0.26071,0.879827 -0.0656,0.297392 -0.11394,0.59937 -0.11253,0.900289 10e-4,0.300214 0.0497,0.601133 0.18168,0.8636 l 0.0501,0.09772 0.0614,0.09066 c 0.0378,0.06315 0.091,0.113947 0.13794,0.169686 0.10406,0.102659 0.21907,0.196145 0.3496,0.266347 0.25823,0.14605 0.5521,0.231775 0.85196,0.276931 0.30056,0.04516 0.60748,0.05574 0.91404,0.04586 0.61348,-0.02328 1.22555,-0.118533 1.82916,-0.248003 0.60395,-0.130175 1.2012,-0.294216 1.79281,-0.475544 0.59161,-0.182739 1.17722,-0.385586 1.75789,-0.602192 0.57997,-0.217311 1.1557,-0.447322 1.72615,-0.690386 0.57044,-0.242358 1.13806,-0.493183 1.69686,-0.762 l 0.0173,0.006 z m -0.002,7.14e-4 c -0.55492,0.279047 -1.11725,0.541867 -1.68487,0.793397 -0.56762,0.250825 -1.14088,0.489656 -1.71944,0.715786 -0.57886,0.225072 -1.16306,0.436739 -1.75467,0.628297 -0.59125,0.191559 -1.18991,0.363009 -1.7981,0.498828 -0.60749,0.136172 -1.2252,0.238478 -1.85209,0.267758 -0.31291,0.01305 -0.62865,0.0053 -0.94262,-0.03916 -0.31291,-0.04445 -0.62583,-0.131233 -0.90981,-0.288219 -0.14358,-0.07549 -0.27305,-0.178153 -0.39017,-0.2921 -0.0536,-0.06174 -0.11325,-0.118886 -0.15699,-0.189089 -0.0229,-0.03387 -0.0476,-0.06703 -0.0691,-0.1016 l -0.0575,-0.108656 c -0.15028,-0.292805 -0.20461,-0.620889 -0.20814,-0.939447 -0.005,-0.320322 0.0434,-0.635 0.10866,-0.943328 0.0628,-0.309386 0.16192,-0.607836 0.26211,-0.904875 l 0.17004,0.09349 c -0.0931,0.116417 -0.19015,0.216959 -0.29422,0.316795 -0.10336,0.09878 -0.21343,0.191558 -0.32949,0.276225 -0.11501,0.08643 -0.23883,0.161925 -0.36759,0.229305 -0.12947,0.06597 -0.266,0.121003 -0.40852,0.159103 -0.0709,0.01976 -0.14499,0.03104 -0.21766,0.04339 -0.0744,0.0039 -0.14852,0.01764 -0.22331,0.01058 l -0.11219,-0.0046 c -0.037,-0.0035 -0.0741,-0.01129 -0.11077,-0.01729 -0.0748,-0.0088 -0.14605,-0.03246 -0.21731,-0.05468 -0.14182,-0.04657 -0.27411,-0.116416 -0.39723,-0.197202 -0.12029,-0.08361 -0.23495,-0.176036 -0.33514,-0.280459 l -0.0773,-0.07655 -0.0695,-0.0829 c -0.0451,-0.05609 -0.0952,-0.10865 -0.13581,-0.167564 -0.0818,-0.117122 -0.16792,-0.232128 -0.23672,-0.356658 -0.036,-0.06103 -0.0741,-0.121709 -0.10795,-0.183798 l -0.0967,-0.189088 c -0.0677,-0.125237 -0.12135,-0.255412 -0.1785,-0.384528 -0.0599,-0.128422 -0.10716,-0.260713 -0.15725,-0.3923 l -0.0744,-0.197555 -0.066,-0.200378 c -0.0434,-0.13335 -0.0907,-0.265994 -0.127,-0.401461 l -0.11572,-0.404636 0.21696,-0.03881 c 0.013,0.148872 0.0208,0.293511 0.0268,0.440267 0.006,0.146402 0.009,0.292805 0.009,0.439208 7.2e-4,0.292806 -0.01,0.585611 -0.0325,0.878064 -0.0102,0.146402 -0.0265,0.292452 -0.0448,0.43815 -0.0176,0.14605 -0.0423,0.291394 -0.0674,0.436386 -0.0296,0.144639 -0.0586,0.289278 -0.0981,0.432505 -0.0169,0.07197 -0.0388,0.142875 -0.0614,0.213784 -0.0215,0.07091 -0.0434,0.142169 -0.0713,0.211314 -0.0494,0.140758 -0.11147,0.277636 -0.1785,0.412044 l -0.11113,0.197556 -0.12911,0.18803 c -0.0476,0.05962 -0.0988,0.117122 -0.14852,0.175331 -0.0526,0.05609 -0.11219,0.105833 -0.16828,0.15875 -0.0582,0.0508 -0.12559,0.09137 -0.18838,0.136877 -0.0639,0.0441 -0.13723,0.07303 -0.205671,0.109714 -0.142875,0.06103 -0.292805,0.108303 -0.446264,0.128059 -0.0381,0.0053 -0.0762,0.01588 -0.114652,0.01623 l -0.115006,0.0035 c -0.07655,0.0025 -0.153458,0.0067 -0.228953,-0.0046 -0.07514,-0.0081 -0.151341,-0.01376 -0.22613,-0.02469 l -0.22082,-0.04798 c -0.07479,-0.01305 -0.144992,-0.03775 -0.2159,-0.06103 l -0.213078,-0.0695 0.151695,-0.1143 c 0.0127,0.196497 0.01341,0.385586 0.0081,0.578555 -0.0056,0.191559 -0.01834,0.383117 -0.04022,0.574322 -0.04339,0.381706 -0.119944,0.762706 -0.255411,1.128889 -0.06879,0.182386 -0.153106,0.360892 -0.258586,0.528461 -0.105834,0.167217 -0.236009,0.322087 -0.38982,0.452614 -0.153105,0.130881 -0.334786,0.229659 -0.525639,0.294217 -0.191205,0.06491 -0.392288,0.09278 -0.590197,0.09278 -0.198614,-3.44e-4 -0.3937,-0.02716 -0.583847,-0.0695 -0.190482,-0.04163 -0.375338,-0.100542 -0.554901,-0.17004 -0.180975,-0.06703 -0.354542,-0.149577 -0.526698,-0.233186 l -0.254,-0.134055 c -0.08255,-0.04762 -0.166511,-0.09349 -0.248355,-0.142522 -0.163689,-0.09807 -0.324203,-0.200731 -0.482247,-0.306564 l -0.235303,-0.161573 -0.23107,-0.167216 C 93.02048,94.87582 92.868433,94.762225 92.720619,94.643339 92.570688,94.52657 92.425696,94.404156 92.279294,94.283858 l 0.133702,-0.06456 c -0.0032,0.215547 -0.03775,0.416278 -0.09066,0.617361 -0.05362,0.19932 -0.128764,0.393347 -0.223662,0.577145 -0.09772,0.182739 -0.217311,0.35313 -0.351719,0.510469 -0.07338,0.07267 -0.139347,0.153106 -0.220486,0.217664 l -0.117475,0.101247 -0.125942,0.08996 c -0.167922,0.120298 -0.352072,0.214137 -0.53975,0.297392 -0.09454,0.03951 -0.192264,0.07091 -0.288219,0.106539 -0.09772,0.03069 -0.197203,0.05397 -0.295628,0.08114 -0.199672,0.04269 -0.400403,0.08079 -0.60325,0.09701 l -0.151694,0.01587 c -0.05045,0.0039 -0.101248,0.0039 -0.152048,0.0063 -0.1016,0.0025 -0.202847,0.0085 -0.304094,0.0085 -0.202494,-0.0085 -0.405694,-0.006 -0.606778,-0.02928 l -0.30233,-0.02715 -0.300214,-0.04339 c -0.200378,-0.02505 -0.398286,-0.06562 -0.596547,-0.103716 -0.19932,-0.03422 -0.394053,-0.08643 -0.59055,-0.131939 -0.197203,-0.04339 -0.390525,-0.1016 -0.584553,-0.155928 l -0.290689,-0.0829 -0.287867,-0.09278 c -0.191205,-0.06315 -0.384527,-0.12065 -0.572911,-0.191911 l -0.568325,-0.205317 0.03316,-0.08502 c 0.471664,0.196497 0.930275,0.415925 1.382889,0.650169 0.451556,0.235303 0.894997,0.48648 1.325386,0.758825 0.430036,0.273402 0.849842,0.564091 1.245306,0.88653 0.394053,0.323497 0.767644,0.676275 1.086555,1.077736 0.316442,0.400403 0.582084,0.857956 0.690386,1.367006 0.05397,0.25295 0.06562,0.51612 0.02963,0.77294 -0.03528,0.25753 -0.117475,0.50694 -0.23248,0.73801 -0.114653,0.23213 -0.261761,0.44627 -0.428625,0.6417 -0.165453,0.1965 -0.346781,0.37924 -0.541514,0.54575 -0.191558,0.17039 -0.398286,0.32244 -0.606425,0.47061 -0.104775,0.073 -0.212725,0.14146 -0.319264,0.21237 l -0.327025,0.19932 -0.04833,-0.10266 c 0.229658,-0.0808 0.460728,-0.14076 0.696383,-0.18944 0.235656,-0.048 0.474134,-0.0818 0.715081,-0.0963 0.240594,-0.0145 0.483658,-0.01 0.724253,0.0236 0.12065,0.0162 0.239888,0.0416 0.358069,0.073 0.117122,0.0346 0.232833,0.0755 0.344664,0.12735 0.221897,0.10513 0.428272,0.25047 0.592667,0.43568 0.167569,0.18274 0.292805,0.40041 0.380647,0.62901 0.08855,0.2286 0.141816,0.46848 0.171802,0.70908 0.02893,0.24095 0.03845,0.4833 0.02822,0.72425 -0.0092,0.2406 -0.03034,0.48084 -0.06526,0.71826 -0.03175,0.23812 -0.07796,0.47342 -0.127352,0.70802 -0.02505,0.11712 -0.05433,0.23319 -0.08149,0.34996 l -0.09137,0.34678 -0.09984,0.34466 -0.107597,0.34184 c -0.07479,0.22684 -0.150989,0.45332 -0.233892,0.67734 -0.07973,0.22507 -0.167569,0.44697 -0.254353,0.66922 -0.08855,0.22154 -0.178153,0.44238 -0.272344,0.66181 -0.09137,0.22048 -0.190853,0.43709 -0.286456,0.65546 L 89.76575,111.8165 c 0.380647,-0.41134 0.773289,-0.80539 1.175808,-1.19274 0.402167,-0.3863 0.814211,-0.76306 1.238603,-1.12607 0.423687,-0.36371 0.860073,-0.71332 1.312334,-1.04352 0.454025,-0.32702 0.922514,-0.63782 1.419578,-0.90346 0.248355,-0.133 0.503766,-0.25541 0.767997,-0.35948 0.26423,-0.10372 0.537986,-0.1898 0.822678,-0.23989 0.283633,-0.0497 0.580672,-0.0635 0.87383,-0.009 0.293864,0.0508 0.574675,0.19262 0.799042,0.39052 0.225778,0.19827 0.392641,0.45015 0.513997,0.71332 0.122061,0.26388 0.2032,0.54046 0.265994,0.81845 0.02752,0.1397 0.05609,0.27904 0.07338,0.4198 0.02258,0.14005 0.03422,0.28081 0.04763,0.42157 0.01447,0.14041 0.01764,0.28152 0.02681,0.42228 l 0.0085,0.42156 -0.242006,-0.0705 c 0.148167,-0.23071 0.30092,-0.45261 0.456848,-0.67486 0.15628,-0.22154 0.315736,-0.44062 0.478719,-0.65722 0.325968,-0.43322 0.665698,-0.8562 1.021648,-1.26612 0.35595,-0.40993 0.72848,-0.80645 1.12571,-1.18005 0.39829,-0.37112 0.81739,-0.72495 1.27812,-1.02658 0.23001,-0.15064 0.47025,-0.28857 0.72354,-0.40428 0.25294,-0.11501 0.51964,-0.20814 0.79869,-0.26035 0.27799,-0.0515 0.5708,-0.0617 0.85478,-0.002 0.28399,0.0571 0.55386,0.17921 0.78599,0.34678 0.23319,0.16686 0.43004,0.37465 0.59902,0.5976 0.17074,0.22261 0.30727,0.46602 0.43074,0.71261 l 0.0892,0.18662 0.0804,0.19015 c 0.0557,0.12559 0.0988,0.25576 0.14711,0.38418 0.0469,0.12876 0.0854,0.25999 0.12841,0.38946 l 0.11148,0.39406 -0.25683,0.0677 c -0.13052,-0.51118 -0.21307,-1.04528 -0.16263,-1.58433 0.025,-0.26846 0.0822,-0.53657 0.18098,-0.79093 0.0995,-0.254 0.24059,-0.49283 0.41487,-0.70273 0.17356,-0.21096 0.381,-0.39123 0.60642,-0.53975 0.22507,-0.14958 0.46708,-0.26917 0.71614,-0.36477 0.49953,-0.19156 1.02447,-0.29069 1.54834,-0.33691 0.52529,-0.0455 1.05198,-0.0374 1.57409,0.009 0.52212,0.0462 1.03999,0.1323 1.5494,0.25259 0.50942,0.12101 1.01107,0.27658 1.49684,0.47449 0.48507,0.19932 0.95744,0.43921 1.38536,0.7553 l -0.13017,0.16474 c -0.27094,-0.23389 -0.52212,-0.47872 -0.76871,-0.73201 -0.24553,-0.25329 -0.4833,-0.514 -0.7112,-0.78281 -0.45579,-0.53834 -0.87594,-1.10702 -1.24848,-1.70674 -0.37183,-0.59973 -0.69497,-1.23155 -0.94403,-1.89336 -0.24871,-0.661103 -0.42369,-1.353253 -0.48895,-2.058809 -0.0639,-0.70485 -0.0169,-1.420636 0.15028,-2.108552 0.0861,-0.343252 0.20073,-0.678391 0.33902,-1.0033 0.13617,-0.325966 0.30798,-0.635352 0.49107,-0.936272 0.18309,-0.301625 0.39617,-0.582789 0.61383,-0.858661 0.22684,-0.268817 0.45932,-0.5334 0.71261,-0.776817 0.24832,-0.248615 0.51326,-0.479685 0.78243,-0.70511 0.13511,-0.11183 0.27517,-0.218016 0.4124,-0.327025 l 0.42439,-0.311502 0.0134,0.02222"
           style="fill:#1b1918;fill-opacity:1;fill-rule:nonzero;stroke:none;stroke-width:0.03527778"
           id="path13440"
           inkscape:connector-curvature="0" />
        <path
           d="m 89.006221,89.477967 c 0,0 0.04551,0.04762 0.125236,0.131233 0.07796,0.08502 0.189795,0.206022 0.318911,0.3556 0.259292,0.297392 0.584553,0.7112 0.87877,1.143706 0.147814,0.2159 0.286103,0.437797 0.412044,0.646994 0.123825,0.210961 0.236009,0.409222 0.324909,0.582436 0.04621,0.08608 0.08572,0.166159 0.121002,0.237067 0.03563,0.07056 0.06562,0.132644 0.08961,0.18415 0.04833,0.102658 0.07585,0.161219 0.07585,0.161219 0,0 -0.03351,-0.05503 -0.09278,-0.152047 -0.02893,-0.04868 -0.06562,-0.106891 -0.108656,-0.173214 -0.04233,-0.06632 -0.08996,-0.141111 -0.144992,-0.221544 -0.106186,-0.161925 -0.238125,-0.34537 -0.382058,-0.53975 -0.14605,-0.192617 -0.3048,-0.395111 -0.472369,-0.590197 -0.333023,-0.391584 -0.691092,-0.758473 -0.972256,-1.01847 -0.140053,-0.130528 -0.26035,-0.235303 -0.343958,-0.30868 -0.08502,-0.07232 -0.133703,-0.113242 -0.133703,-0.113242 -0.04269,-0.03598 -0.01058,-0.139347 0.07161,-0.230717 0.0822,-0.09172 0.184855,-0.135466 0.229305,-0.09807 l 0.0035,0.0035"
           style="fill:#1b1918;fill-opacity:1;fill-rule:nonzero;stroke:none;stroke-width:0.03527778"
           id="path13446"
           inkscape:connector-curvature="0" />
        <path
           d="m 91.027638,90.237145 0.534458,2.423936 -0.959203,-2.289175 c -0.01305,-0.0314 0.07126,-0.08749 0.188031,-0.125589 0.117122,-0.0381 0.222603,-0.04339 0.236008,-0.01199 l 7.15e-4,0.0028"
           style="fill:#1b1918;fill-opacity:1;fill-rule:nonzero;stroke:none;stroke-width:0.03527778"
           id="path13448"
           inkscape:connector-curvature="0" />
        <path
           d="m 114.22489,89.543583 c 0,0 -0.0607,0.01799 -0.16721,0.04974 -0.10584,0.03528 -0.25718,0.08467 -0.43569,0.154164 -0.35806,0.136878 -0.82197,0.361245 -1.25694,0.638175 -0.21872,0.137231 -0.42651,0.290336 -0.61842,0.439209 -0.18803,0.152752 -0.36125,0.300566 -0.49989,0.437091 -0.0713,0.06632 -0.13335,0.130528 -0.18838,0.187325 -0.0557,0.05645 -0.10337,0.106539 -0.14076,0.149578 -0.0762,0.08467 -0.11994,0.132997 -0.11994,0.132997 0,0 0.0363,-0.05398 0.0998,-0.148166 0.031,-0.04762 0.0709,-0.10407 0.11853,-0.16757 0.0466,-0.06421 0.0991,-0.13723 0.16122,-0.213078 0.11924,-0.155927 0.27129,-0.328436 0.44027,-0.509411 0.17215,-0.1778 0.3623,-0.363714 0.56691,-0.535516 0.4064,-0.346428 0.85831,-0.648053 1.21673,-0.844198 0.17851,-0.09984 0.33232,-0.174977 0.44027,-0.227541 0.10936,-0.04974 0.17215,-0.07832 0.17215,-0.07832 0.0554,-0.02469 0.14676,0.07514 0.20391,0.223661 0.0568,0.148166 0.0624,0.287161 0.0124,0.310091 l -0.005,0.0018"
           style="fill:#1b1918;fill-opacity:1;fill-rule:nonzero;stroke:none;stroke-width:0.03527778"
           id="path13450"
           inkscape:connector-curvature="0" />
        <path
           d="m 113.20431,90.992442 c 0,0 -0.036,0.0028 -0.0991,0.0081 -0.0628,0.0074 -0.15311,0.01764 -0.26141,0.0381 -0.21625,0.03845 -0.50306,0.122414 -0.77717,0.249414 -0.13758,0.06209 -0.26917,0.137583 -0.39088,0.212725 -0.11924,0.07796 -0.23001,0.155575 -0.31785,0.230011 -0.0459,0.03563 -0.085,0.07091 -0.11994,0.102658 -0.0356,0.03069 -0.066,0.05891 -0.0893,0.08326 -0.0487,0.04763 -0.0762,0.07479 -0.0762,0.07479 0,0 0.0204,-0.03281 0.0561,-0.08996 0.0173,-0.02928 0.0402,-0.06385 0.0674,-0.102306 0.0268,-0.03916 0.0575,-0.08361 0.0942,-0.129469 0.0699,-0.09525 0.16121,-0.198614 0.26423,-0.307269 0.10548,-0.105834 0.22366,-0.216253 0.35242,-0.315737 0.25576,-0.201083 0.54716,-0.367241 0.77999,-0.467077 0.11607,-0.05151 0.21626,-0.08749 0.28681,-0.112536 0.0713,-0.02293 0.11219,-0.03598 0.11219,-0.03598 0.0367,-0.01129 0.0907,0.10548 0.12065,0.261055 0.03,0.155575 0.03,0.289631 7.9e-4,0.299509 l -0.003,7.14e-4"
           style="fill:#1b1918;fill-opacity:1;fill-rule:nonzero;stroke:none;stroke-width:0.03527778"
           id="path13452"
           inkscape:connector-curvature="0" />
        <path
           d="m 112.54602,87.302034 c 0,0 -0.0533,0.06068 -0.14675,0.166158 -0.091,0.107244 -0.2219,0.260703 -0.37113,0.45085 -0.30127,0.378883 -0.67274,0.908755 -0.99941,1.467908 -0.16475,0.279047 -0.31433,0.566209 -0.4498,0.838553 -0.13123,0.273756 -0.24976,0.532694 -0.34007,0.758472 -0.0476,0.112536 -0.0875,0.216606 -0.12242,0.309386 -0.036,0.09243 -0.0663,0.173567 -0.0889,0.240595 -0.0476,0.134408 -0.0744,0.211314 -0.0744,0.211314 0,0 0.018,-0.07937 0.0497,-0.218017 0.0152,-0.0695 0.036,-0.153458 0.061,-0.249414 0.0247,-0.09631 0.0522,-0.204964 0.0868,-0.322086 0.0646,-0.236008 0.15346,-0.508 0.25436,-0.798336 0.10512,-0.288925 0.22295,-0.595842 0.35736,-0.897114 0.26635,-0.60325 0.58455,-1.18745 0.85055,-1.611489 0.13158,-0.212372 0.24835,-0.385939 0.3302,-0.507294 0.0843,-0.119945 0.13264,-0.188384 0.13264,-0.188384 0.0427,-0.06068 0.18239,-0.0314 0.31221,0.06526 0.12982,0.09666 0.2025,0.221545 0.16228,0.278695 l -0.004,0.0049"
           style="fill:#1b1918;fill-opacity:1;fill-rule:nonzero;stroke:none;stroke-width:0.03527778"
           id="path13454"
           inkscape:connector-curvature="0" />
        <path
           d="m 82.570849,110.99494 c 0,0 0.04974,-0.066 0.136878,-0.18097 0.08819,-0.11395 0.214136,-0.27693 0.369006,-0.4699 0.308327,-0.38559 0.734483,-0.88795 1.179688,-1.37125 0.4445,-0.48436 0.908756,-0.94827 1.265414,-1.28658 0.178153,-0.16933 0.328084,-0.30868 0.434622,-0.40499 0.105834,-0.0963 0.166512,-0.15099 0.166512,-0.15099 0,0 -0.05644,0.0589 -0.155223,0.16298 -0.09878,0.10337 -0.238477,0.25259 -0.403577,0.43427 -0.330553,0.36266 -0.758473,0.8569 -1.164167,1.36843 -0.4064,0.51047 -0.790928,1.03717 -1.067506,1.43898 -0.138288,0.20108 -0.250825,0.37042 -0.329494,0.48895 -0.07761,0.11959 -0.121708,0.18768 -0.121708,0.18768 -0.03881,0.0596 -0.140759,0.061 -0.227895,0.003 -0.08678,-0.0579 -0.125589,-0.15381 -0.08608,-0.21484 l 0.0035,-0.005"
           style="fill:#1b1918;fill-opacity:1;fill-rule:nonzero;stroke:none;stroke-width:0.03527778"
           id="path13456"
           inkscape:connector-curvature="0" />
        <path
           d="m 86.322994,111.38864 c 0,0 0.02046,-0.20285 0.06773,-0.50412 0.04586,-0.30092 0.124177,-0.69956 0.224366,-1.09079 0.09948,-0.39193 0.22225,-0.77611 0.325261,-1.05939 0.0508,-0.14182 0.0956,-0.25858 0.128411,-0.34043 0.03246,-0.0815 0.05115,-0.1277 0.05115,-0.1277 0,0 -0.01305,0.0483 -0.03563,0.13299 -0.02293,0.0847 -0.05362,0.20567 -0.08714,0.35207 -0.06844,0.2921 -0.144286,0.68404 -0.196144,1.07845 -0.05256,0.39405 -0.08255,0.78987 -0.09243,1.08585 -0.01129,0.29633 -0.0078,0.49353 -0.0078,0.49353 3.44e-4,0.043 -0.08431,0.0751 -0.188737,0.0713 -0.104422,-0.004 -0.189088,-0.0427 -0.189441,-0.0875 l 3.44e-4,-0.004"
           style="fill:#1b1918;fill-opacity:1;fill-rule:nonzero;stroke:none;stroke-width:0.03527778"
           id="path13458"
           inkscape:connector-curvature="0" />
        <path
           d="m 82.566263,106.37038 c 0,0 0.146403,-0.0444 0.368653,-0.0963 0.22225,-0.0526 0.5207,-0.1076 0.820561,-0.14111 0.299508,-0.0346 0.599369,-0.0469 0.823383,-0.0455 0.112184,3.4e-4 0.205317,0.003 0.270228,0.006 0.06526,0.003 0.102306,0.005 0.102306,0.005 0,0 -0.03704,0.004 -0.1016,0.0113 -0.06456,0.007 -0.156634,0.0194 -0.266348,0.037 -0.21978,0.0335 -0.509411,0.0924 -0.791986,0.17215 -0.28328,0.0787 -0.558447,0.17639 -0.759883,0.26 -0.202142,0.0822 -0.332317,0.14605 -0.332317,0.14605 -0.02857,0.0134 -0.0829,-0.0547 -0.121355,-0.1517 -0.03845,-0.0974 -0.0448,-0.18767 -0.01446,-0.20178 l 0.0028,-10e-4"
           style="fill:#1b1918;fill-opacity:1;fill-rule:nonzero;stroke:none;stroke-width:0.03527778"
           id="path13460"
           inkscape:connector-curvature="0" />
        <path
           d="m 86.046416,92.04372 c 0,0 0.03845,0.0032 0.105833,0.0088 0.06703,0.0085 0.162631,0.02046 0.274814,0.0441 0.224719,0.0441 0.513997,0.141111 0.776111,0.280811 0.131939,0.06844 0.255411,0.150283 0.366536,0.230364 0.109361,0.08361 0.207786,0.164747 0.284339,0.242005 0.03951,0.03704 0.07338,0.07338 0.103011,0.105833 l 0.07514,0.08467 c 0.04022,0.04833 0.06315,0.07585 0.06315,0.07585 0,0 -0.02787,-0.02258 -0.0762,-0.06174 -0.02399,-0.02046 -0.05397,-0.04304 -0.08925,-0.06809 -0.03493,-0.02575 -0.07408,-0.05433 -0.119591,-0.0822 -0.08749,-0.05927 -0.196145,-0.117828 -0.313267,-0.175684 -0.118886,-0.05397 -0.247297,-0.106891 -0.379236,-0.145344 -0.263525,-0.07937 -0.534106,-0.113242 -0.733778,-0.112889 -0.09984,-0.0011 -0.182386,0.0049 -0.239536,0.0088 -0.05715,0.0067 -0.08996,0.01023 -0.08996,0.01023 -0.02787,0.0035 -0.05539,-0.09349 -0.06174,-0.216253 -0.0063,-0.123119 0.01623,-0.225425 0.05045,-0.229305 h 0.0032"
           style="fill:#1b1918;fill-opacity:1;fill-rule:nonzero;stroke:none;stroke-width:0.03527778"
           id="path13462"
           inkscape:connector-curvature="0" />
        <path
           d="m 104.78033,87.665747 c 0,0 -0.031,0.0314 -0.0854,0.08643 -0.0522,0.05644 -0.12771,0.137583 -0.21238,0.240947 -0.17074,0.205317 -0.37394,0.50412 -0.53728,0.829381 -0.0829,0.161925 -0.1524,0.331258 -0.21307,0.49283 -0.0572,0.162278 -0.10654,0.316795 -0.13829,0.451909 -0.018,0.06738 -0.031,0.129822 -0.0423,0.185561 -0.0123,0.05539 -0.0215,0.104069 -0.0275,0.144286 -0.0134,0.08079 -0.0212,0.127 -0.0212,0.127 0,0 -7.2e-4,-0.04692 -0.002,-0.128764 -0.001,-0.04092 -7.2e-4,-0.09102 10e-4,-0.148167 0.001,-0.0575 0.003,-0.122061 0.009,-0.192616 0.007,-0.141817 0.0282,-0.306212 0.0564,-0.4826 0.0318,-0.175684 0.0716,-0.363362 0.127,-0.547512 0.1083,-0.369358 0.26634,-0.728133 0.41098,-0.98425 0.0713,-0.128763 0.13759,-0.232833 0.18415,-0.305858 0.0487,-0.07161 0.0765,-0.112536 0.0765,-0.112536 0.025,-0.03598 0.13723,0.0127 0.25012,0.109008 0.11324,0.09666 0.18768,0.200731 0.16616,0.232128 l -0.002,0.0028"
           style="fill:#1b1918;fill-opacity:1;fill-rule:nonzero;stroke:none;stroke-width:0.03527778"
           id="path13464"
           inkscape:connector-curvature="0" />
        <path
           d="m 101.55241,111.56468 c 0,0 0.0769,-0.26212 0.21696,-0.63994 0.13864,-0.37853 0.34819,-0.86819 0.58808,-1.32962 0.23883,-0.46285 0.50835,-0.895 0.72355,-1.20262 0.10689,-0.15416 0.19896,-0.27869 0.26493,-0.36407 0.0656,-0.0854 0.10301,-0.13441 0.10301,-0.13441 0,0 -0.0286,0.0568 -0.079,0.15629 -0.0501,0.0991 -0.11959,0.24271 -0.1979,0.41698 -0.15805,0.34748 -0.34537,0.82268 -0.49495,1.3088 -0.15099,0.48543 -0.26635,0.97896 -0.33267,1.35044 -0.0684,0.37112 -0.096,0.61877 -0.096,0.61877 -0.007,0.054 -0.16933,0.0603 -0.3623,0.0152 -0.19333,-0.0455 -0.34326,-0.13053 -0.33479,-0.1905 l 0.001,-0.005"
           style="fill:#1b1918;fill-opacity:1;fill-rule:nonzero;stroke:none;stroke-width:0.03527778"
           id="path13466"
           inkscape:connector-curvature="0" />
        <path
           d="m 114.06367,113.917 c 0,0 -0.0222,-0.0825 -0.0653,-0.22648 -0.0243,-0.0713 -0.054,-0.1577 -0.0878,-0.25683 -0.0335,-0.0995 -0.0826,-0.20743 -0.12982,-0.32843 -0.19755,-0.47943 -0.5461,-1.0915 -0.99307,-1.63936 -0.22084,-0.27587 -0.47131,-0.52846 -0.71508,-0.75741 -0.127,-0.10831 -0.24553,-0.21978 -0.369,-0.31151 -0.0607,-0.0476 -0.11995,-0.0938 -0.1771,-0.13864 -0.0596,-0.0413 -0.11677,-0.0818 -0.17215,-0.12065 -0.10901,-0.0794 -0.21449,-0.14428 -0.30833,-0.20214 -0.0469,-0.0293 -0.0907,-0.0564 -0.13124,-0.0815 -0.0416,-0.0233 -0.0797,-0.0444 -0.1143,-0.0635 -0.13934,-0.0765 -0.21872,-0.1203 -0.21872,-0.1203 0,0 0.084,0.0346 0.23107,0.0949 0.037,0.0152 0.0776,0.0321 0.12206,0.0508 0.0434,0.0205 0.0903,0.0427 0.14041,0.0667 0.10089,0.0469 0.21484,0.10054 0.33373,0.16828 0.0603,0.0328 0.12312,0.067 0.18803,0.1023 0.0632,0.0388 0.12841,0.0787 0.19544,0.11995 0.13687,0.0794 0.26987,0.1785 0.4131,0.27516 0.27622,0.20532 0.56515,0.43709 0.82762,0.6978 0.53057,0.51611 0.97649,1.12324 1.24954,1.61466 0.066,0.12418 0.13229,0.23566 0.18097,0.33902 0.0494,0.10372 0.0924,0.19403 0.12806,0.26846 0.0653,0.15135 0.0998,0.23919 0.0998,0.23919 0.0318,0.0776 -0.0836,0.18556 -0.25788,0.24059 -0.17463,0.0554 -0.33937,0.0441 -0.36795,-0.0247 l -0.002,-0.006"
           style="fill:#1b1918;fill-opacity:1;fill-rule:nonzero;stroke:none;stroke-width:0.03527778"
           id="path13468"
           inkscape:connector-curvature="0" />
        <path
           d="m 113.65022,111.32691 c 0,0 -0.16581,-0.18063 -0.43956,-0.43039 -0.27199,-0.25118 -0.65934,-0.56374 -1.07633,-0.84244 -0.41557,-0.27975 -0.86113,-0.5214 -1.2065,-0.68192 -0.17215,-0.0815 -0.31856,-0.14464 -0.42192,-0.18626 -0.10372,-0.042 -0.16263,-0.066 -0.16263,-0.066 0,0 0.0624,0.0141 0.17145,0.0392 0.10936,0.0247 0.26494,0.0638 0.45014,0.11712 0.37077,0.10478 0.85972,0.27517 1.33209,0.49248 0.47272,0.21555 0.92887,0.47484 1.25766,0.69215 0.1651,0.1076 0.2988,0.20285 0.39299,0.26987 0.0924,0.0691 0.14499,0.10866 0.14499,0.10866 0.0469,0.0349 -0.0152,0.1718 -0.13793,0.30586 -0.12313,0.13405 -0.25789,0.21696 -0.30093,0.18485 l -0.004,-0.003"
           style="fill:#1b1918;fill-opacity:1;fill-rule:nonzero;stroke:none;stroke-width:0.03527778"
           id="path13470"
           inkscape:connector-curvature="0" />
        <path
           d="m 111.69336,113.90994 c 0,0 -0.0113,-0.0656 -0.031,-0.18027 -0.0236,-0.1143 -0.0568,-0.27799 -0.10936,-0.47201 -0.10125,-0.38912 -0.28787,-0.89959 -0.54081,-1.38465 -0.12453,-0.24307 -0.26952,-0.47661 -0.4124,-0.69251 -0.14711,-0.21202 -0.29139,-0.40816 -0.42756,-0.56621 -0.0656,-0.0811 -0.13018,-0.15204 -0.18733,-0.21484 -0.0564,-0.0635 -0.10724,-0.11783 -0.15099,-0.16086 -0.0857,-0.0875 -0.13511,-0.13759 -0.13511,-0.13759 0,0 0.0561,0.0423 0.15451,0.11642 0.0497,0.0367 0.10795,0.0832 0.17392,0.13864 0.0667,0.0543 0.14182,0.11571 0.21978,0.18768 0.16052,0.13864 0.3355,0.31432 0.51823,0.50906 0.1778,0.19791 0.36266,0.41627 0.52952,0.64911 0.33691,0.4632 0.6156,0.97261 0.78635,1.37301 0.0871,0.19967 0.14957,0.37077 0.19367,0.49071 0.0402,0.12136 0.0628,0.1905 0.0628,0.1905 0.0201,0.0617 -0.1083,0.14464 -0.28681,0.18521 -0.17815,0.0402 -0.33796,0.0286 -0.3563,-0.0265 l -10e-4,-0.005"
           style="fill:#1b1918;fill-opacity:1;fill-rule:nonzero;stroke:none;stroke-width:0.03527778"
           id="path13472"
           inkscape:connector-curvature="0" />
      </g>
      <g
         transform="translate(-35.42918,-0.633124)"
         id="g98223">
        <path
           d="m 132.58589,106.83992 c -0.20708,-0.16475 -0.47484,-0.28928 -0.80363,-0.37465 -0.38982,-0.10972 -0.74013,-0.14323 -1.05057,-0.10055 -0.31045,0.043 -0.57538,0.14006 -0.79481,0.29246 -0.21908,0.1524 -0.38629,0.34078 -0.50236,0.56621 -0.11535,0.22542 -0.17956,0.46566 -0.19155,0.72143 -0.0243,0.58455 0.16439,1.0354 0.5662,1.35184 0.40182,0.31679 0.889,0.46884 1.46156,0.45685 0.26776,0 0.50835,-0.0455 0.72179,-0.13688 0.21272,-0.0914 0.39546,-0.20108 0.54786,-0.32879 0.15205,-0.12806 0.27975,-0.26776 0.38382,-0.42016 0.10301,-0.1524 0.17322,-0.28328 0.2099,-0.39299 0.0487,-0.14605 0.0699,-0.31644 0.0639,-0.51153 -0.006,-0.19473 -0.0579,-0.38947 -0.15522,-0.58455 -0.0977,-0.19474 -0.24977,-0.3743 -0.45685,-0.53869"
           style="fill:#1b1918;fill-opacity:1;fill-rule:nonzero;stroke:none;stroke-width:0.03527778"
           id="path13442"
           inkscape:connector-curvature="0" />
        <g
           transform="matrix(0.03527778,0,0,-0.03527778,-11.239847,286.83595)"
           id="g13562">
          <g
             id="g13564"
             clip-path="url(#clipPath13568)">
            <path
               d="m 4175.92,5490.73 c 2.24,-6.39 1.81,-14.25 -1.29,-23.57 -8.98,-25.89 -17.87,-52.13 -26.67,-78.71 -8.81,-26.59 -17.27,-52.82 -25.38,-78.72 -8.11,-25.89 -15.53,-50.83 -22.26,-74.82 -6.73,-24 -12.69,-46.35 -17.87,-67.07 -1.73,-7.25 -4.4,-11.73 -8.03,-13.46 -3.62,-1.73 -9.41,-1.56 -17.35,0.52 -9.66,1.72 -18.55,3.88 -26.66,6.47 -8.12,2.59 -15.98,5.78 -23.56,9.58 -7.95,4.14 -13.21,8.72 -15.8,13.72 -2.59,5.01 -3.03,12.51 -1.29,22.53 2.75,20.02 6.64,43.58 11.65,70.69 5,27.1 10.61,54.97 16.82,83.63 6.22,28.65 12.6,56.97 19.17,84.93 6.55,27.96 12.77,52.99 18.64,75.09 2.76,10.69 6.81,17.26 12.17,19.68 5.35,2.41 13.54,1.72 24.6,-2.08 10.35,-2.76 21.66,-6.73 33.91,-11.91 12.26,-5.17 22.87,-10.87 31.85,-17.09 9.33,-6.56 15.1,-13.03 17.35,-19.41 z m -206.1,-374.41 c 3.28,6.38 8.02,11.73 14.24,16.05 6.21,4.31 13.72,7.07 22.52,8.29 8.81,1.2 18.73,0.25 29.78,-2.85 9.32,-2.42 16.91,-5.95 22.79,-10.62 5.86,-4.66 10.17,-9.76 12.94,-15.28 2.76,-5.52 4.23,-11.05 4.41,-16.57 0.17,-5.52 -0.44,-10.35 -1.81,-14.5 -1.04,-3.1 -3.04,-6.82 -5.96,-11.13 -2.94,-4.32 -6.56,-8.29 -10.88,-11.91 -4.32,-3.62 -9.5,-6.73 -15.53,-9.32 -6.04,-2.59 -12.87,-3.89 -20.46,-3.89 -16.23,-0.34 -30.03,3.98 -41.43,12.95 -11.39,8.98 -16.74,21.75 -16.05,38.32 0.35,7.25 2.16,14.07 5.44,20.46"
               style="fill:url(#linearGradient13578);fill-opacity:1;fill-rule:nonzero;stroke:none"
               id="path13580"
               inkscape:connector-curvature="0" />
          </g>
        </g>
        <path
           d="m 132.5432,91.521948 c -0.0878,0 -0.14323,0.01517 -0.17639,0.02999 -0.12135,0.05503 -0.23072,0.250472 -0.30833,0.550686 -0.20708,0.779286 -0.42756,1.668639 -0.65651,2.644422 -0.2286,0.97402 -0.45579,1.980848 -0.67522,2.992261 -0.21908,1.011062 -0.4184,2.001663 -0.59232,2.943933 -0.17533,0.94862 -0.31291,1.78435 -0.40922,2.48391 -0.0667,0.38558 -0.024,0.57397 0.0233,0.66534 0.0699,0.13546 0.22648,0.26705 0.46461,0.39123 0.25224,0.12629 0.52105,0.23565 0.79692,0.32349 0.27588,0.0882 0.58315,0.16263 0.91264,0.22155 l 0.0169,0.004 c 0.31009,0.0811 0.42721,0.0497 0.46355,0.0325 0.0233,-0.0109 0.10266,-0.067 0.16545,-0.3295 0.1831,-0.73131 0.39547,-1.52929 0.63218,-2.37384 0.23813,-0.84808 0.50306,-1.73849 0.7874,-2.64583 0.28187,-0.899938 0.5835,-1.835152 0.89641,-2.780597 0.31397,-0.948267 0.63112,-1.883481 0.94192,-2.779536 0.0924,-0.277636 0.1083,-0.510117 0.0459,-0.687917 -0.0639,-0.181328 -0.24307,-0.376061 -0.53199,-0.579614 -0.30197,-0.208821 -0.66674,-0.40426 -1.08302,-0.580296 -0.42016,-0.177447 -0.81316,-0.315383 -1.16805,-0.410633 l -0.0145,-0.0042 c -0.24765,-0.08502 -0.41734,-0.110776 -0.53164,-0.110776 z m -0.26776,13.737522 c -0.12559,0 -0.27058,-0.0215 -0.43709,-0.0646 -0.34572,-0.0617 -0.66851,-0.1404 -0.96061,-0.23354 -0.29704,-0.0949 -0.58702,-0.21308 -0.86219,-0.35101 -0.32667,-0.17004 -0.5394,-0.35878 -0.65299,-0.5782 -0.11501,-0.22261 -0.13688,-0.52741 -0.0667,-0.93169 0.0959,-0.69885 0.23495,-1.54093 0.41133,-2.4959 0.17463,-0.946864 0.37501,-1.942049 0.59479,-2.957344 0.22013,-1.013883 0.44803,-2.02318 0.67698,-2.999669 0.22966,-0.979663 0.45156,-1.872897 0.65934,-2.655005 0.11536,-0.447322 0.29528,-0.721431 0.54963,-0.836436 0.242,-0.109008 0.57609,-0.08855 1.02059,0.06315 0.37253,0.09984 0.7821,0.24377 1.21778,0.42792 0.4438,0.187677 0.83503,0.39758 1.16276,0.624416 0.37112,0.261056 0.59725,0.519642 0.69321,0.791633 h 2.6e-4 c 0.0949,0.271287 0.0797,0.597959 -0.0448,0.972256 -0.31115,0.896761 -0.62724,1.829858 -0.94086,2.776008 -0.3122,0.942975 -0.61277,1.876425 -0.89394,2.77389 -0.28327,0.903471 -0.5468,1.789641 -0.78387,2.633491 -0.23565,0.84067 -0.44697,1.63442 -0.62865,2.35973 -0.0773,0.3242 -0.20849,0.52705 -0.4004,0.61842 -0.0868,0.0416 -0.1912,0.0624 -0.31468,0.0624 z m -3.27589,1.18322 c -0.10054,0.19685 -0.15734,0.40993 -0.16792,0.63288 -0.0212,0.514 0.13687,0.89747 0.48365,1.17087 0.36442,0.28716 0.79869,0.42086 1.32257,0.41028 0.24165,0 0.45579,-0.0402 0.64099,-0.11959 0.19192,-0.0825 0.35808,-0.18203 0.49354,-0.29563 0.13617,-0.11395 0.25153,-0.24059 0.34396,-0.37606 0.0917,-0.13511 0.15346,-0.24941 0.18344,-0.33937 0.0402,-0.12065 0.0579,-0.26776 0.0529,-0.43603 -0.005,-0.16193 -0.0501,-0.32844 -0.13264,-0.49389 -0.0829,-0.16581 -0.21661,-0.32244 -0.39723,-0.46602 -0.18238,-0.14464 -0.4258,-0.25718 -0.72319,-0.33444 -0.36336,-0.10195 -0.68686,-0.1337 -0.96661,-0.0952 -0.27482,0.0378 -0.51047,0.12383 -0.70027,0.25541 -0.19085,0.13265 -0.33267,0.2921 -0.43321,0.48684 z m 1.57727,2.64936 c -0.58949,0 -1.10561,-0.16969 -1.53035,-0.50412 -0.45791,-0.36089 -0.67628,-0.8763 -0.64876,-1.53176 0.0134,-0.28681 0.0861,-0.55915 0.21519,-0.81174 h 2.7e-4 c 0.13193,-0.25647 0.3242,-0.47343 0.5715,-0.64559 0.24659,-0.17109 0.54574,-0.28151 0.889,-0.32914 0.33937,-0.0462 0.72248,-0.0102 1.13912,0.10654 0.35242,0.0914 0.64981,0.23107 0.87982,0.41346 0.23072,0.18309 0.40429,0.38876 0.51612,0.61171 0.11077,0.22225 0.17074,0.44909 0.17815,0.67487 0.007,0.21978 -0.0183,0.41733 -0.0748,0.58702 -0.0434,0.12982 -0.12065,0.27587 -0.23636,0.44662 -0.11501,0.16862 -0.25753,0.32455 -0.42404,0.4646 -0.16792,0.14076 -0.37042,0.26247 -0.60184,0.36195 -0.23989,0.10266 -0.51153,0.15487 -0.80751,0.15487 l -0.0656,7.2e-4"
           style="fill:#1b1918;fill-opacity:1;fill-rule:nonzero;stroke:none;stroke-width:0.03527778"
           id="path13582"
           inkscape:connector-curvature="0" />
      </g>
    </g>
  </g>
</svg>
